<svg height="512" width="512" xmlns="http://www.w3.org/2000/svg" data-name="Layer 1"><path d="M256 6C117.929 6 6 117.929 6 256s111.929 250 250 250 250-111.929 250-250S394.071 6 256 6zm85.292 277.135l-84.525 61.088c-3.067 33.011-31.3 58.846-65.311 58.846a65.8 65.8 0 01-64.228-51.311l-44.472-17.671v-82.169l75.144 30.051c11.727-7 24.9-10.137 40.233-8.791l54.846-77.862c.361-47.723 39.782-86.385 88.133-86.385 48.622 0 88.043 39.111 88.133 87.013-.001 48.256-39.512 87.191-87.953 87.191z"/><path d="M191.456 289.953a46.221 46.221 0 00-10.464 1.166l20.117 8.073a37.848 37.848 0 0121.379 49.427 38.369 38.369 0 01-50.066 21.08c-7.848-3.05-15.876-6.369-23.724-9.329a48.252 48.252 0 1042.758-70.417zM341.2 137.636c-32.745 0-59.176 26.194-59.176 58.4 0 32.383 26.521 58.4 59.176 58.4 32.385.09 59-26.014 58.906-58.4.001-32.206-26.52-58.4-58.906-58.4zm-.135 93.469a35.074 35.074 0 1135.449-35.072 35.2 35.2 0 01-35.448 35.072z"/></svg>