<svg xmlns="http://www.w3.org/2000/svg" viewBox="0 0 490.659 490.659"><path d="M487.84 92.931a10.666 10.666 0 00-12.8-2.261 91.11 91.11 0 01-13.632 4.928 95.99 95.99 0 0016.213-31.211c1.513-5.693-1.876-11.535-7.569-13.048a10.664 10.664 0 00-8.857 1.571 224.2 224.2 0 01-51.328 20.075c-36.787-34.722-92.823-39.05-134.507-10.389-32.109 21.71-49.786 59.232-46.08 97.813A252.588 252.588 0 0152.384 65.134a11.03 11.03 0 00-9.067-3.989 10.664 10.664 0 00-8.533 5.205 103.25 103.25 0 00-11.776 80.149 114.143 114.143 0 0018.539 38.763 56.635 56.635 0 01-10.837-6.933c-4.575-3.711-11.292-3.011-15.004 1.564a10.667 10.667 0 00-2.383 6.714c.634 39.467 22.306 75.588 56.832 94.72a79.104 79.104 0 01-13.739-2.944c-5.641-1.697-11.59 1.5-13.287 7.141a10.675 10.675 0 00.487 7.451 116.412 116.412 0 0080.811 66.133 187.945 187.945 0 01-112.533 23.168 10.517 10.517 0 00-11.371 7.296 10.667 10.667 0 004.907 12.587 319.679 319.679 0 00157.653 44.8 270.763 270.763 0 00149.632-45.76c84.544-56.107 137.237-156.843 129.899-246.976a199.261 199.261 0 0046.379-48.341 10.67 10.67 0 00-1.153-12.951z" fill="#03a9f4"/></svg>